# xmcd CD database file
#
# Track frame offsets:
#	150
#	17731
#	49587
#	74165
#	109065
#	137137
#	162744
#	190787
#
# Disc length: 2807 seconds
#
# Revision: 0
# Processed by: cddbd v1.5.2PL0 Copyright (c) Steve Scherf et al.
# Submitted via: CDex 1.70beta3
#
DISCID=740af508
DTITLE=Hasumi Rena - Billows of Blue
DYEAR=2017
DGENRE=Jazz
TTITLE0=Vers Libre I
TTITLE1=Still or Again
TTITLE2=Nocturnal
TTITLE3=Vapors of Voices
TTITLE4=Keep My Water Still
TTITLE5=In the Mists of March
TTITLE6=Billows of Blue
TTITLE7=Vers Libre II
EXTD=YEAR: 2017
EXTT0=
EXTT1=
EXTT2=
EXTT3=
EXTT4=
EXTT5=
EXTT6=
EXTT7=
PLAYORDER=
